<?xml version="1.0" encoding="utf-8"?>
<!-- Generator: Adobe Illustrator 27.3.1, SVG Export Plug-In . SVG Version: 6.00 Build 0)  -->
<svg version="1.1" id="Layer_1" xmlns="http://www.w3.org/2000/svg" xmlns:xlink="http://www.w3.org/1999/xlink" x="0px" y="0px"
	 viewBox="0 0 512 512" style="enable-background:new 0 0 512 512;" xml:space="preserve">
<style type="text/css">
	.st0{fill:#47D7AC;}
</style>
<g>
	<path class="st0" d="M380.1,72h-22.8c-1.6,0-3,1.3-3,3c0,1.6,1.3,3,3,3h19.8v19.8c0,1.6,1.3,3,3,3c1.6,0,3-1.3,3-3l0-22.8
		C383,73.3,381.7,72,380.1,72L380.1,72z"/>
	<path class="st0" d="M380.1,415.6c-1.6,0-3,1.3-3,3v19.8h-19.8c-1.6,0-3,1.3-3,3c0,1.6,1.3,3,3,3h22.8c1.6,0,3-1.3,3-3v-22.8
		C383,416.9,381.7,415.6,380.1,415.6L380.1,415.6z"/>
	<path class="st0" d="M135.8,438.4h-19.8v-19.8c0-1.6-1.3-3-3-3c-1.6,0-3,1.3-3,3l0,22.8c0,1.6,1.3,3,3,3h22.8c1.6,0,3-1.3,3-3
		C138.7,439.7,137.4,438.4,135.8,438.4L135.8,438.4z"/>
	<path class="st0" d="M380.1,109.1c-1.6,0-3,1.3-3,3v28.6c0,1.6,1.3,3,3,3c1.6,0,3-1.3,3-3l0-28.6
		C383,110.4,381.7,109.1,380.1,109.1z"/>
	<path class="st0" d="M380.1,153c-1.6,0-3,1.3-3,3v28.6c0,1.6,1.3,3,3,3c1.6,0,3-1.3,3-3V156C383,154.4,381.7,153,380.1,153z"/>
	<path class="st0" d="M380.1,197c-1.6,0-3,1.3-3,3v28.6c0,1.6,1.3,3,3,3c1.6,0,3-1.3,3-3v-28.6C383,198.3,381.7,197,380.1,197
		L380.1,197z"/>
	<path class="st0" d="M380.1,240.9c-1.6,0-3,1.3-3,3v28.6c0,1.6,1.3,3,3,3c1.6,0,3-1.3,3-3v-28.6C383,242.2,381.7,240.9,380.1,240.9
		L380.1,240.9z"/>
	<path class="st0" d="M380.1,284.8c-1.6,0-3,1.3-3,3v28.6c0,1.6,1.3,3,3,3c1.6,0,3-1.3,3-3v-28.6C383,286.1,381.7,284.8,380.1,284.8
		z"/>
	<path class="st0" d="M380.1,328.7c-1.6,0-3,1.3-3,3v28.6c0,1.6,1.3,3,3,3c1.6,0,3-1.3,3-3v-28.6C383,330,381.7,328.7,380.1,328.7z"
		/>
	<path class="st0" d="M380.1,372.6c-1.6,0-3,1.3-3,3v28.6c0,1.6,1.3,3,3,3c1.6,0,3-1.3,3-3v-28.6C383,374,381.7,372.6,380.1,372.6z"
		/>
	<path class="st0" d="M113,187.5c1.6,0,3-1.3,3-3V156c0-1.6-1.3-3-3-3c-1.6,0-3,1.3-3,3v28.6C110,186.2,111.3,187.5,113,187.5z"/>
	<path class="st0" d="M113,231.4c1.6,0,3-1.3,3-3v-28.6c0-1.6-1.3-3-3-3c-1.6,0-3,1.3-3,3v28.6C110,230.1,111.3,231.4,113,231.4
		L113,231.4z"/>
	<path class="st0" d="M113,275.4c1.6,0,3-1.3,3-3v-28.6c0-1.6-1.3-3-3-3c-1.6,0-3,1.3-3,3v28.6C110,274,111.3,275.4,113,275.4z"/>
	<path class="st0" d="M113,319.3c1.6,0,3-1.3,3-3v-28.6c0-1.6-1.3-3-3-3c-1.6,0-3,1.3-3,3v28.6C110,318,111.3,319.3,113,319.3z"/>
	<path class="st0" d="M113,363.2c1.6,0,3-1.3,3-3v-28.6c0-1.6-1.3-3-3-3c-1.6,0-3,1.3-3,3v28.6C110,361.9,111.3,363.2,113,363.2z"/>
	<path class="st0" d="M113,407.1c1.6,0,3-1.3,3-3v-28.6c0-1.6-1.3-3-3-3c-1.6,0-3,1.3-3,3v28.6C110,405.8,111.3,407.1,113,407.1z"/>
	<path class="st0" d="M341.3,438.4h-24.8c-1.6,0-3,1.3-3,3c0,1.6,1.3,3,3,3h24.8c1.6,0,3-1.3,3-3
		C344.2,439.7,342.9,438.4,341.3,438.4z"/>
	<path class="st0" d="M300.1,438.4h-24.8c-1.6,0-3,1.3-3,3c0,1.6,1.3,3,3,3h24.8c1.6,0,3-1.3,3-3
		C303.1,439.7,301.7,438.4,300.1,438.4z"/>
	<path class="st0" d="M258.9,438.4h-24.8c-1.6,0-3,1.3-3,3c0,1.6,1.3,3,3,3h24.8c1.6,0,3-1.3,3-3
		C261.9,439.7,260.6,438.4,258.9,438.4z"/>
	<path class="st0" d="M217.8,438.4H193c-1.6,0-3,1.3-3,3c0,1.6,1.3,3,3,3h24.8c1.6,0,3-1.3,3-3C220.7,439.7,219.4,438.4,217.8,438.4
		z"/>
	<path class="st0" d="M176.6,438.4h-24.8c-1.6,0-3,1.3-3,3c0,1.6,1.3,3,3,3h24.8c1.6,0,3-1.3,3-3
		C179.6,439.7,178.3,438.4,176.6,438.4z"/>
	<path class="st0" d="M341.3,72h-24.8c-1.6,0-3,1.3-3,3c0,1.6,1.3,3,3,3h24.8c1.6,0,3-1.3,3-3C344.2,73.3,342.9,72,341.3,72z"/>
	<path class="st0" d="M300.1,72h-24.8c-1.6,0-3,1.3-3,3c0,1.6,1.3,3,3,3h24.8c1.6,0,3-1.3,3-3C303.1,73.3,301.7,72,300.1,72z"/>
	<path class="st0" d="M258.9,72h-24.8c-1.6,0-3,1.3-3,3c0,1.6,1.3,3,3,3h24.8c1.6,0,3-1.3,3-3C261.9,73.3,260.6,72,258.9,72z"/>
	<path class="st0" d="M217.8,72H193c-1.6,0-3,1.3-3,3c0,1.6,1.3,3,3,3h24.8c1.6,0,3-1.3,3-3C220.7,73.3,219.4,72,217.8,72z"/>
	<path class="st0" d="M113,143.6c1.6,0,3-1.3,3-3l0-11.3h48.3c1.6,0,3-1.3,3-3V77.9h9.5c1.6,0,3-1.3,3-3c0-1.6-1.3-3-3-3h-12.4
		c-0.8,0-1.5,0.3-2.1,0.9l-51.2,51.4c-0.6,0.6-0.9,1.3-0.9,2.1l0,14.3C110,142.3,111.3,143.6,113,143.6L113,143.6z"/>
</g>
</svg>
