<?xml version="1.0" encoding="utf-8"?>
<!-- Generator: Adobe Illustrator 27.3.1, SVG Export Plug-In . SVG Version: 6.00 Build 0)  -->
<svg version="1.1" id="Layer_1" xmlns="http://www.w3.org/2000/svg" xmlns:xlink="http://www.w3.org/1999/xlink" x="0px" y="0px"
	 viewBox="0 0 512 512" style="enable-background:new 0 0 512 512;" xml:space="preserve">
<style type="text/css">
	.st0{fill:#47D7AC;}
</style>
<path class="st0" d="M33.3,253.8h57.8c5.9,13.2,14.1,25.1,24.2,35.3l163.8,154.2l164-154.6c22.1-22.2,34.5-52.3,34.5-83.7
	c0-31.3-12.4-61.4-34.5-83.7c-42.3-42.3-115-39.4-164,5.9c-28.7-26.8-55.9-40.5-80.3-40.5c-31.4-0.1-61.5,12.3-83.7,34.5
	c-22.2,22.2-34.6,52.3-34.5,83.7c0,13.3,2.2,26.5,6.6,39.1H33.3L33.3,253.8z M436.4,281.9L279.2,430.4L122,282
	c-8.2-8.2-15.1-17.8-20.3-28.2h66.6l23.6-46.1l28.7,85.3l31-47h25.9l35.4,82.7l41.6-124.5l29.7,49.4h72.4
	C451.5,264,444.7,273.6,436.4,281.9L436.4,281.9z M90.2,205.2c-0.1-28.8,11.3-56.6,31.7-77s48.1-31.8,76.9-31.8
	c22.7,0,48.6,13.8,77,41l3.6,3.1l3.3-3.3c39.4-39,109.4-53.6,153.8-9.2v0c20.4,20.4,31.8,48,31.7,76.9c0,13.4-2.5,26.6-7.2,39.1
	h-71.4L352,181.6l-40.2,120.1l-27.9-65.3h-37.4l-23.1,35l-29.6-88.4l-31.2,61.3h-65c-4.8-12.5-7.2-25.7-7.1-39.1L90.2,205.2z"/>
</svg>
