<?xml version="1.0" encoding="utf-8"?>
<!-- Generator: Adobe Illustrator 27.3.1, SVG Export Plug-In . SVG Version: 6.00 Build 0)  -->
<svg version="1.1" id="Layer_1" xmlns="http://www.w3.org/2000/svg" xmlns:xlink="http://www.w3.org/1999/xlink" x="0px" y="0px"
	 viewBox="0 0 512 512" style="enable-background:new 0 0 512 512;" xml:space="preserve">
<style type="text/css">
	.st0{fill:#47D7AC;}
</style>
<path class="st0" d="M408.2,488.2H227.6c-2.9,0-5.2-2.3-5.2-5.2V404H115.4c-2.9,0-5.2-2.3-5.2-5.2V325c-19-5.4-29.7-13.3-32.5-23.8
	c-4.8-17.5,13.7-36.1,30-52.6l2-2c5.3-5.4,4-9.5-1.8-20.9c-4.9-9.7-11.1-21.8-8.4-37.9C122.6,51.3,219.4,29.6,275.1,28.9h1.9
	c54.3,0,104.5,32.2,134.6,86.2c15.9,28.5,24.4,60.4,25.1,92.3c0.6,34-8.4,66.4-25.8,93.7c-29.5,46.5,2.2,179.4,2.5,180.7
	c0.4,1.6,0,3.2-0.9,4.5C411.4,487.5,409.8,488.2,408.2,488.2L408.2,488.2z M232.8,477.7h168.8c-6.3-28.1-28-137.8,0.3-182.4
	c31.8-49.6,31.9-118.4,0.4-175.2c-28.2-50.7-75-80.9-125.4-80.9h-1.7c-52.4,0.7-143.7,21.2-165.5,150.2c-2.2,12.7,2.9,22.7,7.4,31.4
	c5.2,10.2,11.1,21.7-0.1,33l-2,2c-13.6,13.7-30.6,30.8-27.4,42.5c2,7.1,12,13.2,28.9,17.5c2.3,0.6,4,2.7,4,5v72.6h106.8
	c2.9,0,5.2,2.3,5.2,5.2L232.8,477.7z"/>
<path class="st0" d="M269.7,290.2c-1.2,0-2.3-0.4-3.1-1.3c-38.8-38.8-78.8-78.8-78.8-119.4c0-23.8,19.4-43.2,43.2-43.2
	c19.4,0,29.9,9.1,38.8,24.1c8.8-15.1,19.3-24.1,38.8-24.1c23.8,0,43.2,19.4,43.2,43.2c0,40.6-40.1,80.6-78.8,119.4
	C272,289.8,270.8,290.2,269.7,290.2L269.7,290.2z M231,135.2c-18.9,0-34.3,15.4-34.3,34.3c0,35.9,36.6,73.5,73,109.9
	c36.4-36.4,73-74.1,73-109.9c0-18.9-15.4-34.3-34.3-34.3c-16,0-24.9,6.7-34.7,26.6c-0.7,1.5-2.3,2.5-4,2.5c-1.7,0-3.2-1-4-2.5
	C255.8,142,247,135.2,231,135.2L231,135.2z"/>
<path class="st0" d="M279.4,240h-19.2c-2.5,0-4.5-2-4.5-4.5l0-12.1h-12.1c-2.5,0-4.5-2-4.5-4.5v-19.2c0-2.5,2-4.5,4.5-4.5h12.1
	v-12.1c0-2.5,2-4.5,4.5-4.5h19.2c2.5,0,4.5,2,4.5,4.5v12.1h12.1c2.5,0,4.5,2,4.5,4.5V219c0,2.5-2,4.5-4.5,4.5h-12.1v12.1
	C283.8,238,281.8,240,279.4,240L279.4,240z M264.6,231.1h10.3V219c0-2.5,2-4.5,4.5-4.5h12.1v-10.3h-12.1c-2.5,0-4.5-2-4.5-4.5v-12.1
	h-10.3v12.1c0,2.5-2,4.5-4.5,4.5H248l0,10.3h12.1c2.5,0,4.5,2,4.5,4.5L264.6,231.1z"/>
</svg>
