<?xml version="1.0" encoding="utf-8"?>
<!-- Generator: Adobe Illustrator 27.3.1, SVG Export Plug-In . SVG Version: 6.00 Build 0)  -->
<svg version="1.1" id="Layer_1" xmlns="http://www.w3.org/2000/svg" xmlns:xlink="http://www.w3.org/1999/xlink" x="0px" y="0px"
	 viewBox="0 0 512 512" style="enable-background:new 0 0 512 512;" xml:space="preserve">
<style type="text/css">
	.st0{fill:#47D7AC;}
</style>
<path class="st0" d="M165.8,193.1c-2.3,3.2-4.1,6.5-5.4,9.5c2.4-2.2,4.9-4.9,7.2-8.1l0,0c2.3-3.2,4.1-6.4,5.4-9.4
	C170.6,187.1,168.1,189.9,165.8,193.1L165.8,193.1z M158.8,213.1c0,0,0.1,0.1,0.1,0.1c0.8,0.6,2.9-0.1,5.6-1.8
	c3.6-2.3,7.6-6.2,11.3-11.2c3.6-5,6-10.1,7-14.3c0.7-3.1,0.8-5.3-0.1-5.9c0,0-0.1-0.1-0.1-0.1c-0.1,0.6-0.2,1.3-0.4,1.9
	c-1.2,5.1-4,11.2-8.2,17l-0.2,0.3c-4.1,5.7-8.9,10.2-13.3,13C159.9,212.5,159.3,212.8,158.8,213.1L158.8,213.1z M150.7,201.1
	c0,0.3,0,0.6-0.1,0.9c-0.4,1.8-0.5,3.3-0.3,4.4c0.1,0.6,0.3,1,0.4,1.1c0,0,0.1,0.1,0.1,0.1c0.1-0.6,0.2-1.3,0.4-1.9
	c0.5-2,1.2-4.2,2.2-6.5C152.6,199.8,151.7,200.4,150.7,201.1L150.7,201.1z M174.7,174.4c0,0-0.1-0.1-0.1-0.1c-0.1,0-0.1-0.1-0.2-0.1
	c-0.1,0.2-0.2,0.3-0.2,0.5C174.3,174.6,174.5,174.5,174.7,174.4z M179.8,168.7c1,1,1.8,2.2,2.3,3.6c1.9,0,3.6,0.5,5,1.5
	c3.6,2.6,4.6,7.7,3.1,13.9c-0.3,1.4-0.8,2.9-1.4,4.5c18.9,21.3,41,45.1,63.9,69.7c2.2,2.4,4.4,4.7,6.6,7.1
	c3.5-3.7,6.9-7.4,10.3-11.1c22.8-24.6,45-48.4,63.8-69.7c-0.6-1.5-1-3-1.4-4.5c-1.5-6.2-0.5-11.3,3.1-13.9c1.5-1,3.2-1.5,5-1.5
	c0.5-1.4,1.2-2.6,2.3-3.6c-0.8-0.7-1.6-1.5-2.2-2.4c-1.1-1.6-1.6-3.5-1.4-5.5c0.1-0.7,0.2-1.4,0.5-2.2c-1.8-1.1-3.3-2.6-4.2-4.2
	c-1.3-2.2-1.6-4.7-0.6-7.4c0.7-1.8,1.9-3.6,3.9-5.4c0.2-0.2,0.5-0.4,0.7-0.5l-19.6-35.3c-8.2-11.5-8.8-18.9-5.4-23.8
	c3.3-4.8,10.2-6.4,17.2-7c4.7-0.4,9.5-1,14.4-1.6c5.3-0.7,10.6-1.3,15.8-1.7c-0.2-2.1,0.2-4.5,1.1-6.5c1.1-2.3,2.9-4.3,5.5-5
	c1.1-0.3,2.1-0.5,3.3-0.5c6.1,0,11.5,4.7,16.2,12.5c17,2.5,32.3,9.4,46.4,21.7c6.5,5.7,12.8,12.6,18.8,20.8
	c3.5-0.5,7.7-0.3,11.4,0.7c2.7,0.8,5.2,1.9,7.1,3.5c2.3,1.9,3.7,4.4,3.7,7.5c0,0.9-0.1,1.8-0.4,2.8c1.2,0.8,2.3,1.7,3.1,2.7
	c1.2,1.4,1.9,3.1,2.1,5c0.2,1.9-0.2,4-1.4,6.1c-0.3,0.6-0.8,1.2-1.4,1.6c-1.6,1-3.2,1.9-4.8,2.9c4.1,8.3,8,17.5,11.8,27.4
	c1,2.6,2.3,5.4,3.6,8.1c5.4,11.5,10.3,22.1-0.9,28.5c-18.1,10.4-45.3,2.4-70-4.8c-0.9-0.3-1.8-0.5-2.6-0.8c-0.5,2.9-1.3,4.8-2.3,6
	c-1.6,1.8-3.4,2.4-5.4,2.1c-1.5-0.2-2.9-1-4.1-2c-2.9-2.4-5.5-7.3-5.8-10.1c0-0.2,0-0.5,0-0.7c-0.6-0.1-1.1-0.3-1.7-0.4
	c-1.8-0.4-2.6,1.2-3.2,2.5c-0.4,0.8-0.8,1.6-1.3,2.4c-2.1,3-4.5,4.3-8.7,1.5c-0.7-0.3-1.3-0.7-1.9-1c0,0.3,0,0.6-0.1,0.9
	c-0.3,3-1.5,5.4-3.7,6.9c-1.5,1-3.2,1.5-5,1.5c-0.6,1.8-1.6,3.2-3.1,4.3c-3.1,2.2-7.3,2-11.9-0.3l-68.8,83.9
	c36.1,39.3,71.2,78.6,96.3,112.1c2.5,3.4,3.5,7.1,2.7,11.7c-0.7,3.9-2.7,8.3-6.2,13.6c-5.8,12-13.1,14-20.5,11.4
	c-6.4-2.2-12.2-8.1-16.6-13.1c-0.1-0.1-0.2-0.2-0.2-0.3l-83.3-101.6l-80,97.6c-0.1,0.1-0.1,0.2-0.2,0.3c-4.5,5-10.3,10.9-16.6,13.1
	c-7.4,2.6-14.7,0.6-20.5-11.4c-3.5-5.3-5.5-9.7-6.2-13.6c-0.8-4.5,0.2-8.3,2.7-11.7c12.3-16.5,27.1-34.3,43.1-52.9
	c15.7-18.1,32.6-36.8,49.7-55.5l-65.3-79.7c-4.5,2.2-8.8,2.5-11.9,0.3c-1.5-1-2.5-2.5-3.1-4.3c-1.9,0-3.6-0.5-5-1.5
	c-1.9-1.4-3.1-3.5-3.6-6c-0.1-0.6-0.2-1.1-0.2-1.7c-0.6,0.3-1.3,0.7-1.9,1c-4.3,2.8-6.7,1.5-8.7-1.5c-0.5-0.8-0.9-1.5-1.3-2.4
	c-0.6-1.3-1.4-2.9-3.2-2.5c-0.6,0.1-1.1,0.3-1.7,0.4c0,0.2,0,0.5,0,0.7c-0.3,2.8-2.9,7.6-5.8,10.1c-1.3,1.1-2.7,1.8-4.1,2
	c-2,0.3-3.9-0.3-5.4-2.1c-1-1.2-1.9-3.1-2.3-6c-0.9,0.3-1.7,0.5-2.6,0.8c-24.6,7.2-51.8,15.2-70,4.8c-11.2-6.4-6.3-17-0.9-28.5
	c1.3-2.7,2.6-5.5,3.6-8.1c3.8-9.9,7.8-19.1,11.8-27.4c-1.6-0.9-3.2-1.9-4.8-2.9c-0.7-0.4-1.1-1-1.4-1.6c-1.2-2.2-1.6-4.2-1.4-6.1
	c0.2-1.9,1-3.6,2.1-5c0.8-1,1.9-1.9,3.1-2.7c-0.3-1-0.4-1.9-0.4-2.8c0-3.1,1.4-5.6,3.7-7.5c1.9-1.6,4.4-2.8,7.1-3.5
	c3.7-1,7.9-1.3,11.4-0.7c6-8.2,12.2-15,18.8-20.8c14.1-12.3,29.5-19.2,46.4-21.7c4.7-7.9,10.1-12.5,16.2-12.5c1.1,0,2.2,0.2,3.3,0.5
	c2.6,0.7,4.4,2.7,5.5,5c0.9,2,1.3,4.4,1.1,6.5c5.2,0.4,10.5,1.1,15.8,1.7c4.8,0.6,9.7,1.2,14.4,1.6c7.1,0.6,13.9,2.2,17.2,7
	c3.4,4.9,2.8,12.3-5.4,23.8l-19.6,35.3c0.3,0.1,0.5,0.3,0.7,0.5c2,1.8,3.3,3.7,3.9,5.4c1,2.7,0.7,5.2-0.6,7.4
	c-1,1.7-2.4,3.1-4.2,4.2c0.2,0.7,0.4,1.4,0.5,2.2c0.2,2-0.4,3.9-1.4,5.5C181.4,167.1,180.7,167.9,179.8,168.7L179.8,168.7z
	 M172.7,214.9l176,214.8c3.9,4.3,8.8,9.4,13.4,11c3.7,1.3,7.6-0.2,11.1-7.7c0.1-0.2,0.2-0.3,0.3-0.5l0,0c3-4.4,4.6-8,5.1-10.8
	c0.4-2.3,0-4.2-1.3-5.8C344.6,372.1,294.3,318,247,267.1c-21.9-23.5-43.1-46.4-61.8-67.4c-1,1.7-2.1,3.4-3.2,5
	C179.1,208.8,175.9,212.2,172.7,214.9L172.7,214.9z M152.9,71c0.1-0.9,0-2-0.4-2.9c-0.2-0.4-0.4-0.7-0.6-0.8
	c-0.4-0.1-0.8-0.2-1.2-0.2c-2,0-4.1,1.4-6.2,3.9C147.3,70.9,150,70.9,152.9,71L152.9,71z M139.3,79.1c-3.5,6.8-6.7,15.7-9.6,25.8
	c-4,14.1-7.3,30.4-9.8,45.9c18.9,3.7,37,4.9,51,3.6c0.5,0,1.1-0.1,1.6-0.2c0.9-4.5,1.6-9.1,2.2-13.8l0.1-0.7
	c7.1-12.7,14.1-25.5,21.2-38.2l0.1-0.2c6-8.4,7.1-12.9,5.5-15.2c-1.6-2.4-6.4-3.2-11.6-3.7c-4.8-0.4-9.7-1-14.6-1.6
	c-7.7-0.9-15.4-1.9-22.3-2.1C148.5,78.5,143.8,78.6,139.3,79.1L139.3,79.1z M118.8,158.5c-0.2,1.5-0.4,3-0.6,4.4
	c17.7,3.2,34.6,4.2,47.9,3c1.1-0.1,2.4-0.3,3.5-0.6c0.4-1,0.7-2,1-3.1C156.2,163.4,137.8,162.1,118.8,158.5L118.8,158.5z
	 M117.3,170.5c-1.1,9.4-1.7,18-2,25.1c3.6-1,7.1-1.9,10.4-2.6c7.7-1.7,9.9,2.9,11.8,6.7l0.1,0.1c14.8-7.6,23.3-16.6,28.5-26.2
	C152.4,174.8,135.2,173.7,117.3,170.5L117.3,170.5z M115.4,203.6c0.1,0.6,0.1,1.2,0.2,1.6c0.6-0.6,1.1-1.3,1.5-2.1
	C116.5,203.3,115.9,203.4,115.4,203.6L115.4,203.6z M107.6,197.8c0.1-7.8,0.9-17.8,2.1-28.8c-2.2-0.5-4.4-1-6.7-1.5
	c-16-3.8-32.1-9.4-46.4-16.6c-3.9,8.1-7.7,16.9-11.4,26.5c-1.1,3-2.5,5.8-3.8,8.6c-3.8,8.2-7.3,15.7-2.2,18.6
	c15.3,8.8,40.8,1.3,64-5.5C104.6,198.7,106.1,198.2,107.6,197.8L107.6,197.8z M110.7,161.4c0.2-1.5,0.4-3,0.6-4.5
	c-1.1-0.3-2.2-0.5-3.4-0.8c-15.7-3.8-31.5-9.2-45.6-16.2c-0.7,1.4-1.5,2.7-2.2,4.2c13.7,7,29.3,12.3,44.7,16
	C106.8,160.5,108.7,161,110.7,161.4L110.7,161.4z M112.4,149.3c2.5-15.8,5.8-32.2,9.9-46.4c2.4-8.3,5-15.9,7.8-22.3
	c-13.4,2.9-25.6,8.9-37,18.9c-9.6,8.4-18.6,19.5-27,33.8c13.5,6.7,28.5,11.8,43.6,15.4C110.6,148.9,111.5,149.1,112.4,149.3
	L112.4,149.3z M54.8,126.2c2.3-0.5,4.7-0.7,7-0.6c0.8-1.3,1.6-2.5,2.4-3.7c-1.4,0.1-2.9,0.3-4.2,0.7c-1.7,0.5-3.2,1.1-4.2,2
	C55.1,125.1,54.8,125.6,54.8,126.2L54.8,126.2z M52.9,134.8c-0.3,0.1-0.6,0.3-0.8,0.4c-0.7,0.4-1.3,0.8-1.7,1.3
	c-0.2,0.3-0.4,0.6-0.4,0.9c0,0.3,0,0.6,0.2,1c1.1,0.7,2.2,1.3,3.3,1.9c0.7-1.4,1.5-2.8,2.2-4.1C54.6,135.8,53.7,135.3,52.9,134.8
	L52.9,134.8z M282,293.4l67.6-82.5c-3.2-2.7-6.4-6.2-9.3-10.2c-1.2-1.7-2.3-3.4-3.2-5c-18.7,21-39.9,43.9-61.8,67.4
	c-3.6,3.8-7.1,7.7-10.7,11.5C270.3,280.9,276.2,287.1,282,293.4L282,293.4z M254.5,327l-18-22c-17,18.5-33.6,36.9-48.8,54.5
	c-16,18.5-30.6,36.2-42.8,52.4c-1.2,1.6-1.6,3.5-1.3,5.8c0.5,2.9,2.2,6.4,5.1,10.8l0,0c0.1,0.2,0.2,0.3,0.3,0.5
	c3.5,7.5,7.4,9,11.1,7.7c4.7-1.6,9.6-6.7,13.4-11L254.5,327z M347.6,170.4c0.2,0.1,0.4,0.2,0.5,0.3c-0.1-0.2-0.2-0.3-0.2-0.5
	c-0.1,0-0.1,0-0.2,0.1C347.7,170.3,347.7,170.4,347.6,170.4z M371.4,197c-0.9-0.6-1.8-1.2-2.6-1.9c1,2.3,1.7,4.5,2.2,6.5
	c0.2,0.6,0.3,1.3,0.4,1.9c0,0,0.1,0,0.1-0.1c0.3-0.2,0.4-0.7,0.5-1.5C372.1,200.7,371.9,198.9,371.4,197L371.4,197z M363.5,209.1
	c-0.6-0.3-1.1-0.6-1.7-1c-4.4-2.7-9.1-7.3-13.3-13l-0.2-0.3c-4.2-5.9-7-11.9-8.2-17c-0.2-0.6-0.3-1.3-0.4-1.9c0,0-0.1,0-0.1,0.1
	c-0.8,0.6-0.8,2.8-0.1,5.9c1,4.1,3.4,9.2,7,14.3c3.6,5.1,7.7,9,11.3,11.2c2.7,1.7,4.7,2.4,5.6,1.8
	C363.4,209.2,363.5,209.2,363.5,209.1L363.5,209.1z M349.3,181c1.3,3,3.1,6.2,5.4,9.4l0,0c2.3,3.2,4.8,6,7.2,8.1
	c-1.3-3-3.1-6.2-5.4-9.5l0,0C354.2,185.9,351.7,183.1,349.3,181L349.3,181z M392.1,76.6c2.8,6.4,5.4,14,7.8,22.3
	c4.1,14.3,7.4,30.7,9.9,46.4c0.9-0.2,1.8-0.4,2.7-0.6c15-3.6,30.1-8.7,43.6-15.4c-8.5-14.3-17.4-25.4-27-33.8
	C417.8,85.5,405.5,79.4,392.1,76.6L392.1,76.6z M411,152.9c0.2,1.5,0.4,3,0.6,4.5c1.9-0.4,3.9-0.9,5.8-1.3c15.5-3.7,31-9,44.7-16
	c-0.7-1.4-1.5-2.8-2.2-4.2c-14.1,7-29.9,12.4-45.6,16.2C413.2,152.4,412.1,152.7,411,152.9L411,152.9z M412.5,165.1
	c1.3,11,2,20.9,2.1,28.8c1.5,0.4,2.9,0.9,4.4,1.3c23.1,6.8,48.7,14.3,64,5.5c5.1-2.9,1.6-10.4-2.2-18.6c-1.3-2.8-2.6-5.6-3.8-8.6
	c-3.7-9.6-7.5-18.5-11.4-26.5c-14.3,7.2-30.4,12.8-46.4,16.6C417,164.1,414.8,164.6,412.5,165.1L412.5,165.1z M405.2,199.1
	c0.4,0.7,0.9,1.4,1.5,2.1c0.1-0.4,0.1-1,0.2-1.6C406.3,199.4,405.8,199.3,405.2,199.1L405.2,199.1z M406.9,191.6
	c-0.2-7.1-0.9-15.7-2-25.1c-17.9,3.2-35.1,4.2-48.7,3.1c5.1,9.7,13.6,18.6,28.5,26.2l0.1-0.1c1.8-3.8,4.1-8.4,11.8-6.7
	C399.8,189.7,403.3,190.6,406.9,191.6L406.9,191.6z M404,158.9c-0.2-1.5-0.4-2.9-0.6-4.4c-19,3.7-37.3,4.9-51.8,3.7
	c0.3,1,0.6,2,1,3.1c1.2,0.3,2.4,0.5,3.5,0.6C369.4,163.1,386.3,162.1,404,158.9L404,158.9z M402.3,146.9
	c-2.4-15.6-5.8-31.8-9.8-45.9c-2.9-10.1-6.1-19.1-9.6-25.8c-4.5-0.5-9.1-0.6-13.9-0.5c-6.9,0.2-14.6,1.2-22.3,2.1
	c-4.9,0.6-9.9,1.2-14.6,1.6c-5.1,0.5-9.9,1.3-11.6,3.7c-1.6,2.3-0.5,6.8,5.5,15.2l0.1,0.2l21.2,38.2l0.1,0.7
	c0.6,4.6,1.3,9.2,2.2,13.8c0.5,0.1,1.1,0.2,1.6,0.2C365.3,151.7,383.4,150.5,402.3,146.9L402.3,146.9z M377.8,67
	c-2.1-2.5-4.2-3.9-6.2-3.9c-0.4,0-0.7,0.1-1.2,0.2c-0.2,0.1-0.4,0.4-0.6,0.8c-0.4,0.9-0.5,2-0.4,2.9C372.2,66.9,375,66.9,377.8,67
	L377.8,67z M468.9,136.4c1.1-0.6,2.2-1.3,3.3-1.9c0.1-0.4,0.2-0.7,0.2-1c0-0.3-0.2-0.6-0.4-0.9c-0.4-0.5-1-0.9-1.7-1.3
	c-0.3-0.1-0.5-0.3-0.8-0.4c-0.9,0.5-1.8,1-2.7,1.5C467.5,133.6,468.2,135,468.9,136.4L468.9,136.4z M460.5,121.6
	c2.3-0.1,4.7,0.1,7,0.6c0-0.5-0.4-1.1-1-1.6c-1-0.9-2.5-1.5-4.2-2c-1.4-0.4-2.8-0.6-4.2-0.7C458.9,119.1,459.7,120.3,460.5,121.6
	L460.5,121.6z"/>
</svg>
