<svg width="107" height="24" viewBox="0 0 107 24" fill="none" xmlns="http://www.w3.org/2000/svg">
<path d="M18.8578 13.1229L22.9783 4.97737C23.2976 5.11654 23.6496 5.19568 24.0207 5.19568C25.4561 5.19568 26.6186 4.0332 26.6186 2.59784C26.6186 1.16248 25.4533 0 24.0207 0C22.5881 0 21.4229 1.16248 21.4229 2.59784C21.4229 3.57476 21.9632 4.42342 22.76 4.86822L18.6258 13.041C18.5549 13.0247 18.4812 13.0165 18.4048 13.0165C17.8263 13.0165 17.3569 13.4858 17.3569 14.0644C17.3569 14.3754 17.4961 14.6538 17.7117 14.8448L14.8655 20.4689C14.77 20.4525 14.6745 20.4443 14.5763 20.4443C14.5544 20.4443 14.5299 20.4443 14.508 20.4471V15.6007C14.9337 15.2186 15.1984 14.7002 15.1984 14.1981C15.1984 13.696 14.9337 13.1775 14.508 12.7955V4.67993C14.9556 3.29369 14.3361 1.79557 12.9854 1.11882L12.9062 1.11063C11.4136 0.362933 9.59615 0.982376 8.84846 2.47504L0.320884 19.5002C-0.426814 20.9928 0.176257 22.8157 1.67165 23.5634L1.75079 23.6043C3.24345 24.352 5.06085 23.779 5.80855 22.2863L8.87302 16.1983H12.9799C13.4493 16.1983 13.8804 16.0482 14.2406 15.8081V20.4744C13.4192 20.6326 12.7971 21.353 12.7971 22.2208C12.7971 23.2032 13.5939 24 14.5763 24C15.5586 24 16.3554 23.2032 16.3554 22.2208C16.3554 21.424 15.8342 20.75 15.1111 20.5235L17.9136 14.984C18.061 15.0604 18.2247 15.1095 18.4021 15.1095C18.9806 15.1095 19.4499 14.6401 19.4499 14.0616C19.4499 13.6468 19.2071 13.2921 18.8578 13.1229ZM12.9826 12.1924H10.7232L14.2433 5.29392V12.5826C13.8859 12.3425 13.452 12.1924 12.9826 12.1924Z" fill="#47D7AC"/>
<path d="M24.0099 6.60921H23.9498C22.7983 6.63104 21.8814 7.58067 21.9032 8.73224L22.1434 21.8497C22.1652 23.0013 23.1148 23.9181 24.2664 23.8963H24.3264C25.478 23.8745 26.3921 22.9248 26.373 21.7733L26.1329 8.65583C26.1111 7.50427 25.1614 6.59011 24.0099 6.60921Z" fill="white"/>
<path d="M54.445 17V5.287H57.879C58.5817 5.287 59.2957 5.30967 60.021 5.355C61.0297 5.423 61.8117 5.695 62.367 6.171C62.9223 6.647 63.2 7.30433 63.2 8.143C63.2 8.80033 63.0243 9.36133 62.673 9.826C62.3217 10.2907 61.8287 10.625 61.194 10.829C63.0527 11.0897 63.982 12.019 63.982 13.617C63.982 14.331 63.7837 14.9657 63.387 15.521C62.9903 16.065 62.418 16.4447 61.67 16.66C60.922 16.8867 59.7547 17 58.168 17H54.445ZM56.162 15.368H58.44C59.63 15.368 60.48 15.283 60.99 15.113C61.772 14.8637 62.163 14.3083 62.163 13.447C62.163 12.699 61.8003 12.1947 61.075 11.934C60.6443 11.7867 59.8623 11.713 58.729 11.713H56.162V15.368ZM56.162 10.149H58.253C59.3977 10.149 60.1513 10.0753 60.514 9.928C61.1373 9.69 61.449 9.21967 61.449 8.517C61.449 7.701 61.0183 7.20233 60.157 7.021C59.7377 6.93033 59.0577 6.885 58.117 6.885H56.162V10.149ZM75.7497 12.784C75.7497 14.0647 75.2794 15.1243 74.3387 15.963C73.3981 16.8017 72.1854 17.221 70.7007 17.221C69.2161 17.221 68.0091 16.8073 67.0797 15.98C66.1617 15.1413 65.7027 14.076 65.7027 12.784C65.7027 11.5033 66.1731 10.4437 67.1137 9.605C68.0657 8.76633 69.2784 8.347 70.7517 8.347C72.2704 8.347 73.4831 8.755 74.3897 9.571C75.2964 10.387 75.7497 11.458 75.7497 12.784ZM74.0327 12.784C74.0327 11.9453 73.7324 11.2483 73.1317 10.693C72.5311 10.1377 71.7321 9.86 70.7347 9.86C69.7601 9.86 68.9611 10.1377 68.3377 10.693C67.7257 11.237 67.4197 11.934 67.4197 12.784C67.4197 13.6567 67.7371 14.3593 68.3717 14.892C69.0064 15.4247 69.7997 15.691 70.7517 15.691C71.7264 15.691 72.5141 15.4133 73.1147 14.858C73.7267 14.3027 74.0327 13.6113 74.0327 12.784ZM86.7916 16.915C86.531 17.051 86.1683 17.119 85.7036 17.119C84.7063 17.119 84.1113 16.745 83.9186 15.997C83.2726 16.813 82.213 17.221 80.7396 17.221C79.6516 17.221 78.813 16.9773 78.2236 16.49C77.6456 16.0027 77.3566 15.385 77.3566 14.637C77.3566 13.4583 77.98 12.6763 79.2266 12.291C80.0086 12.0417 81.074 11.917 82.4226 11.917C82.876 11.917 83.2896 11.9453 83.6636 12.002V11.713C83.6636 11.1917 83.539 10.7837 83.2896 10.489C82.9723 10.1263 82.3376 9.945 81.3856 9.945C80.8756 9.945 80.309 10.0243 79.6856 10.183C79.0623 10.3417 78.5296 10.6023 78.0876 10.965H78.0196V9.35C79.017 8.68133 80.258 8.347 81.7426 8.347C82.876 8.347 83.7373 8.568 84.3266 9.01C84.678 9.27067 84.9273 9.59933 85.0746 9.996C85.222 10.3927 85.2956 10.9367 85.2956 11.628C85.2956 11.832 85.29 12.223 85.2786 12.801C85.2786 13.379 85.2786 13.7927 85.2786 14.042C85.2786 14.6767 85.307 15.0733 85.3636 15.232C85.4656 15.4813 85.7036 15.606 86.0776 15.606C86.361 15.606 86.599 15.572 86.7916 15.504V16.915ZM83.6806 14.722C83.6693 14.5293 83.6636 14.0647 83.6636 13.328C83.1423 13.26 82.6776 13.226 82.2696 13.226C81.4536 13.226 80.7736 13.2883 80.2296 13.413C79.4703 13.583 79.0906 13.9797 79.0906 14.603C79.0906 15.4077 79.7196 15.81 80.9776 15.81C82.179 15.81 83.08 15.4473 83.6806 14.722ZM89.96 17H88.311V8.585H89.943V9.979C90.1017 9.571 90.436 9.197 90.946 8.857C91.456 8.517 92.068 8.347 92.782 8.347C93.2693 8.347 93.6547 8.432 93.938 8.602V10.353H93.87C93.5413 10.183 93.1277 10.098 92.629 10.098C91.949 10.098 91.3767 10.217 90.912 10.455C90.4473 10.6817 90.13 10.9763 89.96 11.339V17ZM104.634 17H103.053V15.606C102.747 16.0593 102.299 16.4447 101.71 16.762C101.12 17.068 100.395 17.221 99.5336 17.221C98.1963 17.221 97.0573 16.8413 96.1166 16.082C95.176 15.3227 94.7056 14.246 94.7056 12.852C94.7056 11.8547 94.955 11.0047 95.4536 10.302C95.9636 9.59933 96.5813 9.10067 97.3066 8.806C98.0433 8.5 98.8366 8.347 99.6866 8.347C101.149 8.347 102.276 8.789 103.07 9.673V4.624H104.634V17ZM102.985 13.889V11.577C102.747 11.0443 102.322 10.625 101.71 10.319C101.109 10.0017 100.491 9.843 99.8566 9.843C98.8933 9.843 98.0716 10.098 97.3916 10.608C96.723 11.1067 96.3886 11.849 96.3886 12.835C96.3886 13.753 96.7173 14.4613 97.3746 14.96C98.032 15.4473 98.8026 15.691 99.6866 15.691C100.333 15.691 100.973 15.5267 101.608 15.198C102.242 14.8693 102.701 14.433 102.985 13.889Z" fill="white"/>
<path d="M36.23 17H33.068L38.321 5.287H41.262L46.515 17H43.251L42.129 14.518H37.352L36.23 17ZM38.321 12.002H41.143C40.3837 10.2793 39.9133 9.16867 39.732 8.67C39.4827 9.29333 39.0123 10.404 38.321 12.002ZM50.7281 17H47.7871V5.287H50.7281V17Z" fill="#47D7AC"/>
</svg>
